<svg id="visual" viewBox="0 0 1500 500" width="1500" height="500" xmlns="http://www.w3.org/2000/svg" xmlns:xlink="http://www.w3.org/1999/xlink" version="1.1"><rect x="0" y="0" width="1500" height="500" fill="#0c0524"></rect><path d="M0 362L100 361L200 343L300 315L400 304L500 325L600 329L700 360L800 349L900 328L1000 362L1100 334L1200 316L1300 328L1400 315L1500 325L1500 501L1400 501L1300 501L1200 501L1100 501L1000 501L900 501L800 501L700 501L600 501L500 501L400 501L300 501L200 501L100 501L0 501Z" fill="#c98804"></path><path d="M0 392L100 384L200 383L300 352L400 371L500 394L600 389L700 373L800 341L900 346L1000 369L1100 393L1200 344L1300 391L1400 371L1500 384L1500 501L1400 501L1300 501L1200 501L1100 501L1000 501L900 501L800 501L700 501L600 501L500 501L400 501L300 501L200 501L100 501L0 501Z" fill="#ce5348"></path><path d="M0 383L100 423L200 401L300 407L400 406L500 412L600 418L700 422L800 408L900 421L1000 403L1100 389L1200 401L1300 401L1400 409L1500 385L1500 501L1400 501L1300 501L1200 501L1100 501L1000 501L900 501L800 501L700 501L600 501L500 501L400 501L300 501L200 501L100 501L0 501Z" fill="#9f3f70"></path><path d="M0 419L100 407L200 429L300 417L400 433L500 430L600 442L700 417L800 407L900 422L1000 414L1100 439L1200 416L1300 450L1400 415L1500 413L1500 501L1400 501L1300 501L1200 501L1100 501L1000 501L900 501L800 501L700 501L600 501L500 501L400 501L300 501L200 501L100 501L0 501Z" fill="#523f75"></path><path d="M0 466L100 473L200 466L300 452L400 471L500 462L600 465L700 465L800 444L900 468L1000 472L1100 453L1200 467L1300 451L1400 446L1500 451L1500 501L1400 501L1300 501L1200 501L1100 501L1000 501L900 501L800 501L700 501L600 501L500 501L400 501L300 501L200 501L100 501L0 501Z" fill="#003554"></path></svg>